<svg xmlns="http://www.w3.org/2000/svg" xmlns:xlink="http://www.w3.org/1999/xlink" id="Capa_1" data-name="Capa 1" viewBox="0 0 375.03 88.8"><defs><style>.cls-1{fill:none;}.cls-2{clip-path:url(#clip-path);}.cls-3{fill:#002b45;}.cls-4{fill:#ff0049;}</style><clipPath id="clip-path" transform="translate(-12 -13.9)"><rect class="cls-1" x="12" y="13.9" width="375.1" height="88.7"></rect></clipPath></defs><g class="cls-2"><path class="cls-3" d="M85.3,58.4h-16L82.7,34.9Zm3.1,25.5h19.5l-10.3-70h-20L72,23h8.7l-2.5,4.3c-1.4,2.4-4.4,4.3-6.7,4.3H66.8L50.4,58.5H64.5L60,66.3c-1.6,2.7-5.1,5-7.8,5H42.6L34.9,84H54.4l7.4-12.5h25Zm90.5-56,3.2-14h-57l-3.2,14h35l-44.7,42-3.2,14h57l3.2-14h-35Zm55.6,56,.6-1-11-34.5,27.6-34.5h-19L210.8,41.4h-9l6.3-27.5h-18l-16.2,70h18l6.6-28.5h9l8.9,28.5Zm50.4-25.5h-16l13.4-23.5ZM288,83.9h19.5l-10.3-70h-20l-42.1,69,.3,1H254l7.4-12.5h25Zm80.1-50-2.1,9c-.9,4-3.4,6-7.4,6h-20l4.8-21h20c4.1,0,5.6,2,4.7,6m16.7-15.2c-2.4-3.2-7.2-4.8-14.2-4.8h-42l-16.2,70h18l4.8-21h14l6.7,21h19.5l-7.4-22a18.43,18.43,0,0,0,10.2-6.1,30.88,30.88,0,0,0,5.7-12.9l2.1-9c1.7-7,1.3-12.1-1.2-15.2" transform="translate(-12 -13.9)"></path></g><g class="cls-2"><path class="cls-3" d="M370.6,99.8l2.3-3.6h0l-.2,3.6a.1.1,0,0,1-.1.1l-2-.1c-.1.1-.1,0,0,0m2.1,2.7h1.6a.1.1,0,0,1,.1-.1h0l.4-8.1c0-.1,0-.1-.1-.1h-1.8c-.1,0-.1,0-.2.1l-5.4,8.1v.1h1.6c.1,0,.1,0,.2-.1l.8-1.2h3l-.1,1.2c-.2.1-.2.1-.1.1m-6.3-7.1.4-1.2v-.1h-5.6l-.1.1-2.9,8.1v.1h5.6l.1-.1.4-1.2c0-.1,0-.1-.1-.1h-3.8v-.1l.7-1.9a.1.1,0,0,1,.1-.1h2.6l.1-.1.4-1.2v-.1h-2.6v-.1l.7-1.9h3.9c.1,0,.1,0,.1-.1m-14.9,7.2a4.15,4.15,0,0,0,1.6-.3,3.32,3.32,0,0,0,1.4-1,4.19,4.19,0,0,0,.9-1.4l2-5.6v-.1h-1.5l-.1.1-2,5.6a1.6,1.6,0,0,1-.7.9,2.1,2.1,0,0,1-1.1.4,1,1,0,0,1-.8-.3.75.75,0,0,1-.1-.8c0-.1,0-.2.1-.2l.3-.8c0-.1,0-.1-.1-.1h-1.5l-.1.1-.3.8a.76.76,0,0,0-.1.4,1.66,1.66,0,0,0,.3,1.7,2.44,2.44,0,0,0,1.8.6m-9.6-2.8,2.3-3.6h0l-.2,3.6a.1.1,0,0,1-.1.1l-2-.1h0m2.1,2.7h1.6a.1.1,0,0,1,.1-.1h0l.4-8.1c0-.1,0-.1-.1-.1h-1.8c-.1,0-.1,0-.2.1l-5.4,8.1v.1h1.6c.1,0,.1,0,.2-.1l.8-1.2h3l-.1,1.2c-.2.1-.1.1-.1.1m-10.7-6.9h1.5a.91.91,0,0,1,.7.3.82.82,0,0,1,.1.7,1.46,1.46,0,0,1-.6.9,1.69,1.69,0,0,1-1,.3h-1.5v-.1l.8-2.1h0m.3,6.9H335c.1,0,.1,0,.2-.1v-.1l-.4-3.4a.1.1,0,0,1,.1-.1,3.92,3.92,0,0,0,1.4-.8,4.19,4.19,0,0,0,.9-1.4.76.76,0,0,0,.1-.4,1.81,1.81,0,0,0-.2-1.5,1.75,1.75,0,0,0-1.5-.6h-3.4l-.1.1-2.9,8.1v.1h1.6l.1-.1,1.2-3.3a.1.1,0,0,1,.1-.1h1.2l.3,3.3c-.2.3-.2.3-.1.3m-5.1-8.4h-6l-.1.1-.4,1.2v.1h2.1s.1,0,0,.1l-2.4,6.7v.1h1.6l.1-.1,2.4-6.7.1-.1h2.2l.1-.1.4-1.2-.1-.1h0m-9.6,1.3.4-1.2v-.1h-5.6l-.1.1-2.9,8.1v.1h5.6l.1-.1.4-1.2c0-.1,0-.1-.1-.1h-3.8v-.1l.7-1.9a.1.1,0,0,1,.1-.1h2.6l.1-.1.4-1.2v-.1h-2.6v-.1l.7-1.9h3.9c.1,0,.1,0,.1-.1m-10.7-1.2L305.5,97h-.1l-.8-2.8a.1.1,0,0,0-.1-.1H303l-.1.1-2.9,8.1v.1h1.6l.1-.1,1.9-5.3v-.1h0l.5,2c0,.1,0,.1.1.1h.7c.1,0,.1,0,.2-.1l1.9-2h.1l-1.9,5.3v.1h1.6l.1-.1,2.9-8.1V94h-1.5c0,.1,0,.2-.1.2m-14.4,7c-.4,0-.7-.1-.8-.3a1.25,1.25,0,0,1-.1-.9.37.37,0,0,1,.1-.3l.9-2.6a2.26,2.26,0,0,1,.8-1.1,1.92,1.92,0,0,1,1.2-.4c.4,0,.7.1.8.3s.2.5.1.9a.37.37,0,0,1-.1.3l-.9,2.6a2.26,2.26,0,0,1-.8,1.1,1.92,1.92,0,0,1-1.2.4m-.6,1.5a3.29,3.29,0,0,0,1.7-.4,7.17,7.17,0,0,0,1.5-1.1,3.67,3.67,0,0,0,.9-1.6l.9-2.6a.9.9,0,0,0,.1-.5,1.79,1.79,0,0,0-.3-1.8,2.14,2.14,0,0,0-1.8-.7,3.29,3.29,0,0,0-1.7.4,5.27,5.27,0,0,0-1.5,1.1,3.67,3.67,0,0,0-.9,1.6l-.9,2.6a.9.9,0,0,0-.1.5,2,2,0,0,0,.3,1.9,2.1,2.1,0,0,0,1.8.6m-5.4-8.4-1.8,5v.1h0l-1.2-5.1a.1.1,0,0,0-.1-.1h-1.4l-.1.1-2.9,8.1v.1h1.6l.1-.1,1.8-5.1v-.1h0l1.2,5.1c0,.1,0,.1.1.1h1.4l.1-.1,2.9-8.1v-.1h-1.6c0,.1-.1.1-.1.2M274,101.2c-.4,0-.7-.1-.8-.3s-.2-.5-.1-.9a.37.37,0,0,1,.1-.3L274,97a2.26,2.26,0,0,1,.8-1.1,1.92,1.92,0,0,1,1.2-.4c.4,0,.7.1.8.3s.2.5.1.9a.37.37,0,0,1-.1.3l-.9,2.6a2.26,2.26,0,0,1-.8,1.1,1.27,1.27,0,0,1-1.1.5m-.6,1.5a3.29,3.29,0,0,0,1.7-.4,5.27,5.27,0,0,0,1.5-1.1,3.67,3.67,0,0,0,.9-1.6l.9-2.6a.9.9,0,0,0,.1-.5,1.79,1.79,0,0,0-.3-1.8,2.14,2.14,0,0,0-1.8-.7,3.29,3.29,0,0,0-1.7.4,7.17,7.17,0,0,0-1.5,1.1,3.67,3.67,0,0,0-.9,1.6l-.9,2.6a.9.9,0,0,0-.1.5,2,2,0,0,0,.3,1.9,3,3,0,0,0,1.8.6m-8.2-7.1h1.5a.91.91,0,0,1,.7.3.82.82,0,0,1,.1.7,1.46,1.46,0,0,1-.6.9,1.69,1.69,0,0,1-1,.3h-1.5v-.1l.8-2.1h0m.3,6.9h1.4c.1,0,.1,0,.2-.1v-.1l-.4-3.4a.1.1,0,0,1,.1-.1,3.92,3.92,0,0,0,1.4-.8,4.19,4.19,0,0,0,.9-1.4.76.76,0,0,0,.1-.4,1.81,1.81,0,0,0-.2-1.5,1.75,1.75,0,0,0-1.5-.6h-3.4l-.1.1-2.9,8.1v.1h1.6l.1-.1L264,99a.1.1,0,0,1,.1-.1h1.2l.3,3.3c-.2.3-.1.3-.1.3m-14,0H253l.1-.1.8-2.4.1-.1,1-.9h.1l.8,3.5a.1.1,0,0,0,.1.1h1.5c.1,0,.1,0,.1-.1v-.1l-1.1-4.5v-.1l3.8-3.4.1-.1c0-.1,0-.1-.1-.1h-1.5c-.1,0-.1,0-.2.1l-3.9,3.4h-.1l1.2-3.4v-.1h-1.6l-.1.1-2.9,8.1c.2,0,.2.1.3.1h0m-13.8,0h5.5l.1-.1.4-1.2c0-.1,0-.1-.1-.1h-3.8V101l2.4-6.7v-.1h-1.6l-.1.1-2.9,8.1a.1.1,0,0,0,.1.1h0m-6.4-1.3c-.4,0-.7-.1-.8-.3s-.2-.5-.1-.9a.37.37,0,0,1,.1-.3l.9-2.6a2.26,2.26,0,0,1,.8-1.1,1.92,1.92,0,0,1,1.2-.4c.4,0,.7.1.8.3s.2.5.1.9c0,.1-.1.2-.1.3l-.9,2.6a2.26,2.26,0,0,1-.8,1.1,1.92,1.92,0,0,1-1.2.4m-.5,1.5a3.29,3.29,0,0,0,1.7-.4,5.27,5.27,0,0,0,1.5-1.1,3.67,3.67,0,0,0,.9-1.6l.9-2.6a.9.9,0,0,0,.1-.5,1.79,1.79,0,0,0-.3-1.8,2.14,2.14,0,0,0-1.8-.7,3.29,3.29,0,0,0-1.7.4,7.17,7.17,0,0,0-1.5,1.1,5.07,5.07,0,0,0-.9,1.6l-.9,2.6a.9.9,0,0,0-.1.5,2,2,0,0,0,.3,1.9,2.1,2.1,0,0,0,1.8.6m-8.2-7.1h1.5a.91.91,0,0,1,.7.3.82.82,0,0,1,.1.7,1.46,1.46,0,0,1-.6.9,1.69,1.69,0,0,1-1,.3h-1.5v-.1l.8-2.1h0m.3,6.9h1.4c.1,0,.1,0,.2-.1v-.1l-.4-3.4a.1.1,0,0,1,.1-.1,3.92,3.92,0,0,0,1.4-.8,4.19,4.19,0,0,0,.9-1.4.76.76,0,0,0,.1-.4,1.81,1.81,0,0,0-.2-1.5,1.75,1.75,0,0,0-1.5-.6h-3.4l-.1.1-2.9,8.1v.1h1.6l.1-.1,1.2-3.3a.1.1,0,0,1,.1-.1h1.2l.3,3.3c-.2.3-.2.3-.1.3m-9.8,0h1.5l.1-.1,2.9-8.1v-.1H216l-.1.1-2.9,8.1a.1.1,0,0,0,.1.1h0m-9.7,0h1.5l.1-.1.8-2.4.1-.1L207,99h.1l.8,3.5a.1.1,0,0,0,.1.1h1.5c.1,0,.1,0,.1-.1v-.1l-1.1-4.5v-.1l3.8-3.4.1-.1c0-.1,0-.1-.1-.1h-1.5c-.1,0-.1,0-.2.1l-3.9,3.4h-.1l1.2-3.4v-.1h-1.6l-.1.1-2.9,8.1c.1,0,.1.1.2.1h0" transform="translate(-12 -13.9)"></path></g><polygon class="cls-3" points="0 65.8 0 65.8 4.9 57.3 14 57.3 9.1 65.8 0 65.8"></polygon><g class="cls-2"><path class="cls-4" d="M34.1,58.5,26.7,71.3h9.9c2.7,0,6.2-2.2,7.8-5l4.5-7.8Z" transform="translate(-12 -13.9)"></path></g><g class="cls-2"><path class="cls-4" d="M60.1,23l-4.9,8.5h5.7a8.56,8.56,0,0,0,6.7-4.3l2.5-4.3h-10Z" transform="translate(-12 -13.9)"></path></g><polygon class="cls-3" points="33 17.7 42.1 17.7 37.2 26.2 28.1 26.2 33 17.7"></polygon><polygon class="cls-3" points="42.7 0.6 51.9 0.6 46.9 9.1 37.8 9.1 42.7 0.6"></polygon></svg>