<?xml version="1.0" encoding="utf-8"?>
<!-- Generator: Adobe Illustrator 24.2.3, SVG Export Plug-In . SVG Version: 6.00 Build 0)  -->
<svg version="1.1" id="Capa_1" xmlns="http://www.w3.org/2000/svg" xmlns:xlink="http://www.w3.org/1999/xlink" x="0px" y="0px"
	 viewBox="0 0 403 112.5" style="enable-background:new 0 0 403 112.5;" xml:space="preserve">
<style type="text/css">
	.st0{clip-path:url(#SVGID_2_);}
	.st1{fill:#009FE3;}
	.st2{clip-path:url(#SVGID_4_);}
	.st3{clip-path:url(#SVGID_4_);fill:#009FE3;}
	.st4{clip-path:url(#SVGID_6_);fill:#009FE3;}
</style>
<g>
	<defs>
		<rect id="SVGID_1_" x="11.1" y="9.7" width="380.7" height="93.1"/>
	</defs>
	<clipPath id="SVGID_2_">
		<use xlink:href="#SVGID_1_"  style="overflow:visible;"/>
	</clipPath>
	<path class="st0" d="M371.7,31l-3.3,9c-1.5,4-4.2,6-8.2,6h-20l7.6-21h20C371.9,25,373.2,27,371.7,31 M390.5,15.8
		c-2-3.2-6.5-4.8-13.5-4.8h-42l-25.5,70h18l7.6-21h14l3.9,21h19.5L368,59c4.4-1,8-3,11-6.1c2.9-3.1,5.4-7.4,7.4-12.9l3.3-9
		C392.3,24,392.5,19,390.5,15.8"/>
</g>
<path d="M285.9,32l-0.6,23.5h-16L285.9,32z M304.5,81l-1-70h-20l-51.3,69l0.2,1H251l9-12.5h25l0,12.5H304.5z"/>
<polygon class="st1" points="231.5,81 232.2,80.1 225.8,45.5 258,11 239,11 207.4,45.1 213.4,81 "/>
<polygon points="199.9,9.7 163,101.7 181,101.7 217.9,9.7 "/>
<polygon points="183.3,25 188.4,11 131.4,11 126.3,25 161.3,25 111,67 105.9,81 162.9,81 168,67 133,67 "/>
<g>
	<defs>
		<rect id="SVGID_3_" x="11.1" y="9.7" width="380.7" height="93.1"/>
	</defs>
	<clipPath id="SVGID_4_">
		<use xlink:href="#SVGID_3_"  style="overflow:visible;"/>
	</clipPath>
	<path class="st2" d="M86.3,32l-0.6,23.5h-16L86.3,32z M104.9,81l-1-70h-20l-5.3,7.2h8.2L83.9,22c-1.2,1.6-3.4,2.8-5,2.8h-5.2
		L50.8,55.7h15.3l-7.3,9.7c-1.2,1.6-3.4,2.8-5,2.8H41.5L31.9,81h19.5l9-12.5h25l0,12.5H104.9z"/>
	<path class="st2" d="M366.7,99.9l2.3-3.6c0,0,0,0,0,0s0,0,0,0l-0.2,3.6c0,0,0,0.1-0.1,0.1L366.7,99.9
		C366.7,100,366.7,100,366.7,99.9 M368.8,102.7h1.5c0,0,0.1,0,0.1,0c0,0,0-0.1,0.1-0.1l0,0l0.4-8.1c0-0.1,0-0.1-0.1-0.1h-1.8
		c-0.1,0-0.1,0-0.2,0.1l-5.4,8.1c0,0,0,0.1,0,0.1c0,0,0,0,0.1,0h1.5c0.1,0,0.1,0,0.2-0.1l0.8-1.2c0,0,0,0,0.1,0h2.9c0,0,0,0,0,0
		c0,0,0,0,0,0l-0.1,1.2C368.7,102.6,368.7,102.7,368.8,102.7 M362.6,95.6l0.4-1.2c0,0,0-0.1,0-0.1c0,0-0.1,0-0.1,0h-5.4
		c0,0-0.1,0-0.1,0c0,0-0.1,0.1-0.1,0.1l-2.9,8.1c0,0,0,0.1,0,0.1c0,0,0,0,0.1,0h5.4c0,0,0.1,0,0.1,0c0,0,0.1-0.1,0.1-0.1l0.4-1.2
		c0-0.1,0-0.1-0.1-0.1h-3.8c0,0,0,0,0-0.1l0.7-1.9c0,0,0-0.1,0.1-0.1h2.5c0,0,0.1,0,0.1,0c0,0,0.1-0.1,0.1-0.1l0.4-1.2
		c0,0,0-0.1,0-0.1c0,0,0,0-0.1,0h-2.5c0,0,0,0,0-0.1l0.7-1.9c0,0,0,0,0,0c0,0,0,0,0,0h3.8c0,0,0.1,0,0.1,0
		C362.5,95.6,362.6,95.6,362.6,95.6 M347.6,102.8c0.6,0,1.1-0.1,1.6-0.3c0.5-0.2,1-0.5,1.4-1c0.4-0.4,0.7-0.9,0.9-1.4l2-5.6
		c0,0,0-0.1,0-0.1c0,0,0,0-0.1,0h-1.3c0,0-0.1,0-0.1,0c0,0-0.1,0.1-0.1,0.1l-2,5.6c-0.1,0.4-0.4,0.7-0.7,0.9
		c-0.3,0.2-0.7,0.4-1.1,0.4c-0.4,0-0.6-0.1-0.8-0.3c-0.2-0.2-0.2-0.5-0.1-0.8c0-0.1,0-0.2,0.1-0.2l0.3-0.8c0-0.1,0-0.1-0.1-0.1h-1.4
		c0,0-0.1,0-0.1,0c0,0-0.1,0.1-0.1,0.1l-0.3,0.8c-0.1,0.2-0.1,0.3-0.1,0.4c-0.2,0.7-0.1,1.3,0.3,1.7
		C346.2,102.5,346.8,102.8,347.6,102.8 M338.1,99.9l2.3-3.6c0,0,0,0,0,0s0,0,0,0l-0.2,3.6c0,0,0,0.1-0.1,0.1L338.1,99.9
		C338.1,100,338.1,100,338.1,99.9 M340.2,102.7h1.5c0,0,0.1,0,0.1,0c0,0,0-0.1,0.1-0.1l0,0l0.4-8.1c0-0.1,0-0.1-0.1-0.1h-1.8
		c-0.1,0-0.1,0-0.2,0.1l-5.4,8.1c0,0,0,0.1,0,0.1c0,0,0,0,0.1,0h1.5c0.1,0,0.1,0,0.2-0.1l0.8-1.2c0,0,0,0,0.1,0h2.9c0,0,0,0,0,0
		c0,0,0,0,0,0l-0.1,1.2C340.1,102.6,340.1,102.7,340.2,102.7 M329.4,95.7h1.5c0.3,0,0.5,0.1,0.7,0.3c0.1,0.2,0.2,0.4,0.1,0.7
		c-0.1,0.4-0.3,0.7-0.6,0.9c-0.3,0.2-0.6,0.3-1,0.3h-1.5c0,0,0,0,0-0.1L329.4,95.7C329.4,95.8,329.4,95.7,329.4,95.7
		C329.4,95.7,329.4,95.7,329.4,95.7 M329.8,102.7h1.4c0.1,0,0.1,0,0.2-0.1c0,0,0,0,0-0.1l-0.4-3.4c0,0,0-0.1,0.1-0.1
		c0.5-0.2,1-0.4,1.4-0.8c0.4-0.4,0.7-0.9,0.9-1.4c0.1-0.2,0.1-0.3,0.1-0.4c0.1-0.6,0.1-1.2-0.2-1.5c-0.3-0.4-0.8-0.6-1.5-0.6h-3.3
		c0,0-0.1,0-0.1,0c0,0-0.1,0.1-0.1,0.1l-2.9,8.1c0,0,0,0.1,0,0.1c0,0,0,0,0.1,0h1.4c0,0,0.1,0,0.1,0c0,0,0.1-0.1,0.1-0.1l1.2-3.3
		c0,0,0-0.1,0.1-0.1h1.1c0,0,0.1,0,0.1,0l0.3,3.3C329.6,102.6,329.7,102.7,329.8,102.7 M324.7,94.3h-5.9c0,0-0.1,0-0.1,0
		c0,0-0.1,0.1-0.1,0.1l-0.4,1.2c0,0,0,0.1,0,0.1c0,0,0,0,0.1,0h2c0,0,0.1,0,0,0.1l-2.4,6.7c0,0,0,0.1,0,0.1c0,0,0,0,0.1,0h1.4
		c0,0,0.1,0,0.1,0c0,0,0.1-0.1,0.1-0.1l2.4-6.7c0,0,0.1-0.1,0.1-0.1h2.1c0,0,0.1,0,0.1,0c0,0,0.1-0.1,0.1-0.1l0.4-1.2
		C324.8,94.4,324.8,94.3,324.7,94.3C324.7,94.3,324.7,94.3,324.7,94.3 M315,95.6l0.4-1.2c0,0,0-0.1,0-0.1c0,0-0.1,0-0.1,0H310
		c0,0-0.1,0-0.1,0c0,0-0.1,0.1-0.1,0.1l-2.9,8.1c0,0,0,0.1,0,0.1c0,0,0,0,0.1,0h5.4c0,0,0.1,0,0.1,0c0,0,0.1-0.1,0.1-0.1l0.4-1.2
		c0-0.1,0-0.1-0.1-0.1h-3.8c0,0,0,0,0-0.1l0.7-1.9c0,0,0-0.1,0.1-0.1h2.5c0,0,0.1,0,0.1,0c0,0,0.1-0.1,0.1-0.1l0.4-1.2
		c0,0,0-0.1,0-0.1c0,0,0,0-0.1,0h-2.5c0,0,0,0,0-0.1l0.7-1.9c0,0,0,0,0,0c0,0,0,0,0,0h3.8c0,0,0.1,0,0.1,0
		C315,95.6,315,95.6,315,95.6 M304.3,94.4l-2.7,2.8c0,0-0.1,0-0.1,0l-0.8-2.8c0-0.1,0-0.1-0.1-0.1h-1.4c0,0-0.1,0-0.1,0
		c0,0-0.1,0.1-0.1,0.1l-2.9,8.1c0,0,0,0.1,0,0.1c0,0,0,0,0.1,0h1.4c0,0,0.1,0,0.1,0c0,0,0.1-0.1,0.1-0.1l1.9-5.3c0,0,0-0.1,0-0.1
		c0,0,0,0,0,0l0.5,2c0,0.1,0.1,0.1,0.1,0.1h0.7c0.1,0,0.1,0,0.2-0.1l1.9-2c0,0,0,0,0.1,0s0,0,0,0l-1.9,5.3c0,0,0,0.1,0,0.1
		c0,0,0,0,0.1,0h1.4c0,0,0.1,0,0.1,0c0,0,0.1-0.1,0.1-0.1l2.9-8.1c0,0,0-0.1,0-0.1c0,0,0,0-0.1,0h-1.4
		C304.5,94.3,304.4,94.3,304.3,94.4 M289.9,101.3c-0.4,0-0.7-0.1-0.8-0.3c-0.2-0.2-0.2-0.5-0.1-0.9c0-0.1,0-0.2,0.1-0.3l0.9-2.6
		c0.2-0.5,0.4-0.8,0.8-1.1c0.4-0.3,0.8-0.4,1.2-0.4c0.4,0,0.7,0.1,0.8,0.3c0.2,0.2,0.2,0.5,0.1,0.9c0,0.1,0,0.2-0.1,0.3l-0.9,2.6
		c-0.2,0.5-0.4,0.8-0.8,1.1C290.7,101.2,290.3,101.3,289.9,101.3 M289.4,102.8c0.6,0,1.2-0.1,1.7-0.4c0.6-0.3,1-0.6,1.5-1.1
		c0.4-0.5,0.7-1,0.9-1.6l0.9-2.6c0.1-0.2,0.1-0.3,0.1-0.5c0.2-0.8,0.1-1.4-0.3-1.8c-0.4-0.5-1-0.7-1.8-0.7c-0.6,0-1.2,0.1-1.7,0.4
		c-0.5,0.3-1,0.6-1.5,1.1c-0.4,0.5-0.7,1-0.9,1.6l-0.9,2.6c-0.1,0.2-0.1,0.3-0.1,0.5c-0.2,0.8-0.1,1.4,0.3,1.9
		S288.5,102.8,289.4,102.8 M284,94.4l-1.8,5c0,0,0,0.1,0,0.1c0,0,0,0,0,0l-1.2-5.1c0-0.1-0.1-0.1-0.1-0.1h-1.3c0,0-0.1,0-0.1,0
		c0,0-0.1,0.1-0.1,0.1l-2.9,8.1c0,0,0,0.1,0,0.1c0,0,0,0,0.1,0h1.4c0,0,0.1,0,0.1,0c0,0,0.1-0.1,0.1-0.1l1.8-5.1c0,0,0-0.1,0-0.1
		s0,0,0,0l1.2,5.1c0,0.1,0.1,0.1,0.1,0.1h1.3c0,0,0.1,0,0.1,0c0,0,0.1-0.1,0.1-0.1l2.9-8.1c0,0,0-0.1,0-0.1c0,0,0,0-0.1,0h-1.4
		c0,0-0.1,0-0.1,0C284,94.3,284,94.4,284,94.4 M270.1,101.3c-0.4,0-0.7-0.1-0.8-0.3c-0.2-0.2-0.2-0.5-0.1-0.9c0-0.1,0-0.2,0.1-0.3
		l0.9-2.6c0.2-0.5,0.4-0.8,0.8-1.1c0.4-0.3,0.8-0.4,1.2-0.4c0.4,0,0.7,0.1,0.8,0.3c0.2,0.2,0.2,0.5,0.1,0.9c0,0.1,0,0.2-0.1,0.3
		l-0.9,2.6c-0.2,0.5-0.4,0.8-0.8,1.1C270.9,101.2,270.5,101.3,270.1,101.3 M269.6,102.8c0.6,0,1.2-0.1,1.7-0.4
		c0.6-0.3,1-0.6,1.5-1.1c0.4-0.5,0.7-1,0.9-1.6l0.9-2.6c0.1-0.2,0.1-0.3,0.1-0.5c0.2-0.8,0.1-1.4-0.3-1.8c-0.4-0.5-1-0.7-1.8-0.7
		c-0.6,0-1.2,0.1-1.7,0.4c-0.6,0.3-1,0.6-1.5,1.1c-0.4,0.5-0.7,1-0.9,1.6l-0.9,2.6c-0.1,0.2-0.1,0.3-0.1,0.5
		c-0.2,0.8-0.1,1.4,0.3,1.9S268.8,102.8,269.6,102.8 M261.4,95.7h1.5c0.3,0,0.5,0.1,0.7,0.3c0.1,0.2,0.2,0.4,0.1,0.7
		c-0.1,0.4-0.3,0.7-0.6,0.9c-0.3,0.2-0.6,0.3-1,0.3h-1.5c0,0,0,0,0-0.1L261.4,95.7C261.3,95.8,261.3,95.7,261.4,95.7
		C261.3,95.7,261.3,95.7,261.4,95.7 M261.7,102.7h1.4c0.1,0,0.1,0,0.2-0.1c0,0,0,0,0-0.1l-0.4-3.4c0,0,0-0.1,0.1-0.1
		c0.5-0.2,1-0.4,1.4-0.8c0.4-0.4,0.7-0.9,0.9-1.4c0.1-0.2,0.1-0.3,0.1-0.4c0.1-0.6,0.1-1.2-0.2-1.5c-0.3-0.4-0.8-0.6-1.5-0.6h-3.3
		c0,0-0.1,0-0.1,0c0,0-0.1,0.1-0.1,0.1l-2.9,8.1c0,0,0,0.1,0,0.1c0,0,0,0,0.1,0h1.4c0,0,0.1,0,0.1,0c0,0,0.1-0.1,0.1-0.1l1.2-3.3
		c0,0,0-0.1,0.1-0.1h1.1c0,0,0.1,0,0.1,0l0.3,3.3C261.6,102.6,261.6,102.7,261.7,102.7 M247.7,102.7h1.4c0,0,0.1,0,0.1,0
		c0,0,0.1-0.1,0.1-0.1l0.8-2.4l0.1-0.1l1.1-0.9c0,0,0,0,0.1,0c0,0,0,0,0,0l0.8,3.5c0,0.1,0.1,0.1,0.1,0.1h1.5c0.1,0,0.1,0,0.1-0.1
		c0,0,0-0.1,0-0.1l-1.1-4.5c0,0,0-0.1,0-0.1l3.8-3.4c0,0,0.1-0.1,0.1-0.1c0-0.1,0-0.1-0.1-0.1h-1.5c-0.1,0-0.1,0-0.2,0.1l-3.9,3.4
		c0,0,0,0-0.1,0c0,0,0,0,0,0l1.2-3.4c0,0,0-0.1,0-0.1c0,0,0,0-0.1,0h-1.4c0,0-0.1,0-0.1,0c0,0-0.1,0.1-0.1,0.1l-2.9,8.1
		C247.5,102.6,247.5,102.6,247.7,102.7C247.6,102.6,247.6,102.7,247.7,102.7 M233.9,102.7h5.4c0,0,0.1,0,0.1,0c0,0,0.1-0.1,0.1-0.1
		l0.4-1.2c0-0.1,0-0.1-0.1-0.1h-3.8c0,0,0,0,0-0.1l2.4-6.7c0,0,0-0.1,0-0.1c0,0,0,0-0.1,0h-1.4c0,0-0.1,0-0.1,0c0,0-0.1,0.1-0.1,0.1
		l-2.9,8.1C233.8,102.6,233.8,102.6,233.9,102.7C233.8,102.6,233.8,102.7,233.9,102.7 M227.5,101.3c-0.4,0-0.7-0.1-0.8-0.3
		c-0.2-0.2-0.2-0.5-0.1-0.9c0-0.1,0-0.2,0.1-0.3l0.9-2.6c0.2-0.5,0.4-0.8,0.8-1.1c0.4-0.3,0.8-0.4,1.2-0.4c0.4,0,0.7,0.1,0.8,0.3
		c0.2,0.2,0.2,0.5,0.1,0.9c0,0.1-0.1,0.2-0.1,0.3l-0.9,2.6c-0.2,0.5-0.4,0.8-0.8,1.1C228.3,101.2,227.9,101.3,227.5,101.3
		 M226.9,102.8c0.6,0,1.2-0.1,1.7-0.4c0.6-0.3,1-0.6,1.5-1.1c0.4-0.5,0.7-1,0.9-1.6l0.9-2.6c0.1-0.2,0.1-0.3,0.1-0.5
		c0.2-0.8,0.1-1.4-0.3-1.8c-0.4-0.5-1-0.7-1.8-0.7c-0.6,0-1.2,0.1-1.7,0.4c-0.6,0.3-1,0.6-1.5,1.1c-0.4,0.5-0.7,1-0.9,1.6l-0.9,2.6
		c-0.1,0.2-0.1,0.3-0.1,0.5c-0.2,0.8-0.1,1.4,0.3,1.9S226.1,102.8,226.9,102.8 M218.7,95.7h1.5c0.3,0,0.5,0.1,0.7,0.3
		c0.1,0.2,0.2,0.4,0.1,0.7c-0.1,0.4-0.3,0.7-0.6,0.9c-0.3,0.2-0.6,0.3-1,0.3h-1.5c0,0,0,0,0-0.1L218.7,95.7
		C218.6,95.8,218.6,95.7,218.7,95.7C218.7,95.7,218.7,95.7,218.7,95.7 M219,102.7h1.4c0.1,0,0.1,0,0.2-0.1c0,0,0,0,0-0.1l-0.4-3.4
		c0,0,0-0.1,0.1-0.1c0.5-0.2,1-0.4,1.4-0.8c0.4-0.4,0.7-0.9,0.9-1.4c0.1-0.2,0.1-0.3,0.1-0.4c0.1-0.6,0.1-1.2-0.2-1.5
		c-0.3-0.4-0.8-0.6-1.5-0.6h-3.3c0,0-0.1,0-0.1,0c0,0-0.1,0.1-0.1,0.1l-2.9,8.1c0,0,0,0.1,0,0.1c0,0,0,0,0.1,0h1.4c0,0,0.1,0,0.1,0
		c0,0,0.1-0.1,0.1-0.1l1.2-3.3c0,0,0-0.1,0.1-0.1h1.1c0,0,0.1,0,0.1,0l0.3,3.3C218.9,102.6,218.9,102.7,219,102.7 M209.2,102.7h1.4
		c0,0,0.1,0,0.1,0c0,0,0.1-0.1,0.1-0.1l2.9-8.1c0,0,0-0.1,0-0.1c0,0,0,0-0.1,0h-1.4c0,0-0.1,0-0.1,0c0,0-0.1,0.1-0.1,0.1l-2.9,8.1
		C209.1,102.6,209.1,102.6,209.2,102.7C209.2,102.6,209.2,102.7,209.2,102.7 M199.5,102.7h1.4c0,0,0.1,0,0.1,0c0,0,0.1-0.1,0.1-0.1
		l0.8-2.4l0.1-0.1l1.1-0.9c0,0,0,0,0.1,0c0,0,0,0,0,0l0.8,3.5c0,0.1,0.1,0.1,0.1,0.1h1.5c0.1,0,0.1,0,0.1-0.1c0,0,0-0.1,0-0.1
		l-1.1-4.5c0,0,0-0.1,0-0.1l3.8-3.4c0,0,0.1-0.1,0.1-0.1c0-0.1,0-0.1-0.1-0.1H207c-0.1,0-0.1,0-0.2,0.1l-3.9,3.4c0,0,0,0-0.1,0
		c0,0,0,0,0,0l1.2-3.4c0,0,0-0.1,0-0.1c0,0,0,0-0.1,0h-1.4c0,0-0.1,0-0.1,0c0,0-0.1,0.1-0.1,0.1l-2.9,8.1
		C199.4,102.6,199.4,102.6,199.5,102.7C199.5,102.6,199.5,102.7,199.5,102.7"/>
	<path class="st3" d="M69.1,17.9l-5.2,6.9h5.7c1.6,0,3.8-1.3,5-2.8l3.1-4.1H69.1z"/>
</g>
<polygon points="63.5,11.1 72.6,11.1 67.5,17.9 58.4,17.9 "/>
<polygon points="54.1,24.8 63.2,24.8 58.1,31.6 49,31.6 "/>
<g>
	<defs>
		<rect id="SVGID_5_" x="11.1" y="9.7" width="380.7" height="93.1"/>
	</defs>
	<clipPath id="SVGID_6_">
		<use xlink:href="#SVGID_5_"  style="overflow:visible;"/>
	</clipPath>
	<path class="st4" d="M34.8,55.7l-8.7,11.5h11.3c1.6,0,3.8-1.3,5-2.8l6.5-8.7H34.8z"/>
</g>
<polygon points="11.1,73.6 11.1,73.6 16.3,66.8 25.4,66.8 20.3,73.6 "/>
</svg>
