<?xml version="1.0" encoding="utf-8"?>
<!-- Generator: Adobe Illustrator 24.2.3, SVG Export Plug-In . SVG Version: 6.00 Build 0)  -->
<svg version="1.1" id="Capa_1" xmlns="http://www.w3.org/2000/svg" xmlns:xlink="http://www.w3.org/1999/xlink" x="0px" y="0px"
	 viewBox="0 0 403 112.5" style="enable-background:new 0 0 403 112.5;" xml:space="preserve">
<style type="text/css">
	.st0{clip-path:url(#SVGID_2_);fill:#FFFFFF;}
	.st1{fill:#FFFFFF;}
	.st2{clip-path:url(#SVGID_4_);fill:#FFFFFF;}
	.st3{clip-path:url(#SVGID_6_);fill:#FFFFFF;}
</style>
<g>
	<defs>
		<rect id="SVGID_1_" x="11.7" y="9.7" width="380.7" height="93.1"/>
	</defs>
	<clipPath id="SVGID_2_">
		<use xlink:href="#SVGID_1_"  style="overflow:visible;"/>
	</clipPath>
	<path class="st0" d="M372.3,31l-3.3,9c-1.5,4-4.2,6-8.2,6h-20l7.6-21h20C372.5,25,373.8,27,372.3,31 M391.1,15.8
		c-2-3.2-6.5-4.8-13.5-4.8h-42l-25.5,70h18l7.6-21h14l3.9,21h19.5l-4.5-22c4.4-1,8-3,11-6.1c2.9-3.1,5.4-7.4,7.4-12.9l3.3-9
		C392.9,24,393.1,19,391.1,15.8"/>
</g>
<path class="st1" d="M286.5,32l-0.6,23.5h-16L286.5,32z M305.1,81l-1-70h-20l-51.3,69l0.2,1h18.6l9-12.5h25l0,12.5H305.1z"/>
<polygon class="st1" points="232.1,81 232.8,80.1 226.4,45.5 258.6,11 239.6,11 208,45.1 214,81 "/>
<polygon class="st1" points="200.5,9.7 163.6,101.7 181.6,101.7 218.5,9.7 "/>
<polygon class="st1" points="183.9,25 189,11 132,11 126.9,25 161.9,25 111.6,67 106.5,81 163.5,81 168.6,67 133.6,67 "/>
<g>
	<defs>
		<rect id="SVGID_3_" x="11.7" y="9.7" width="380.7" height="93.1"/>
	</defs>
	<clipPath id="SVGID_4_">
		<use xlink:href="#SVGID_3_"  style="overflow:visible;"/>
	</clipPath>
	<path class="st2" d="M86.9,32l-0.6,23.5h-16L86.9,32z M105.5,81l-1-70h-20l-5.3,7.2h8.2L84.5,22c-1.2,1.6-3.4,2.8-5,2.8h-5.2
		L51.4,55.7h15.3l-7.3,9.7c-1.2,1.6-3.4,2.8-5,2.8H42.1L32.5,81H52l9-12.5h25L86,81H105.5z"/>
	<path class="st2" d="M367.3,99.9l2.3-3.6c0,0,0,0,0,0c0,0,0,0,0,0l-0.2,3.6c0,0,0,0.1-0.1,0.1L367.3,99.9
		C367.3,100,367.3,100,367.3,99.9 M369.4,102.7h1.5c0,0,0.1,0,0.1,0c0,0,0-0.1,0.1-0.1l0,0l0.4-8.1c0-0.1,0-0.1-0.1-0.1h-1.8
		c-0.1,0-0.1,0-0.2,0.1l-5.4,8.1c0,0,0,0.1,0,0.1c0,0,0,0,0.1,0h1.5c0.1,0,0.1,0,0.2-0.1l0.8-1.2c0,0,0,0,0.1,0h2.9c0,0,0,0,0,0
		c0,0,0,0,0,0l-0.1,1.2C369.3,102.6,369.3,102.7,369.4,102.7 M363.2,95.6l0.4-1.2c0,0,0-0.1,0-0.1c0,0-0.1,0-0.1,0h-5.4
		c0,0-0.1,0-0.1,0c0,0-0.1,0.1-0.1,0.1l-2.9,8.1c0,0,0,0.1,0,0.1c0,0,0,0,0.1,0h5.4c0,0,0.1,0,0.1,0c0,0,0.1-0.1,0.1-0.1l0.4-1.2
		c0-0.1,0-0.1-0.1-0.1h-3.8c0,0,0,0,0-0.1l0.7-1.9c0,0,0-0.1,0.1-0.1h2.5c0,0,0.1,0,0.1,0c0,0,0.1-0.1,0.1-0.1l0.4-1.2
		c0,0,0-0.1,0-0.1c0,0,0,0-0.1,0h-2.5c0,0,0,0,0-0.1l0.7-1.9c0,0,0,0,0,0c0,0,0,0,0,0h3.8c0,0,0.1,0,0.1,0
		C363.1,95.6,363.2,95.6,363.2,95.6 M348.2,102.8c0.6,0,1.1-0.1,1.6-0.3c0.5-0.2,1-0.5,1.4-1c0.4-0.4,0.7-0.9,0.9-1.4l2-5.6
		c0,0,0-0.1,0-0.1c0,0,0,0-0.1,0h-1.3c0,0-0.1,0-0.1,0c0,0-0.1,0.1-0.1,0.1l-2,5.6c-0.1,0.4-0.4,0.7-0.7,0.9
		c-0.3,0.2-0.7,0.4-1.1,0.4c-0.4,0-0.6-0.1-0.8-0.3c-0.2-0.2-0.2-0.5-0.1-0.8c0-0.1,0-0.2,0.1-0.2l0.3-0.8c0-0.1,0-0.1-0.1-0.1h-1.4
		c0,0-0.1,0-0.1,0c0,0-0.1,0.1-0.1,0.1l-0.3,0.8c-0.1,0.2-0.1,0.3-0.1,0.4c-0.2,0.7-0.1,1.3,0.3,1.7
		C346.8,102.5,347.4,102.8,348.2,102.8 M338.7,99.9l2.3-3.6c0,0,0,0,0,0c0,0,0,0,0,0l-0.2,3.6c0,0,0,0.1-0.1,0.1L338.7,99.9
		C338.7,100,338.7,100,338.7,99.9 M340.8,102.7h1.5c0,0,0.1,0,0.1,0c0,0,0-0.1,0.1-0.1l0,0l0.4-8.1c0-0.1,0-0.1-0.1-0.1h-1.8
		c-0.1,0-0.1,0-0.2,0.1l-5.4,8.1c0,0,0,0.1,0,0.1c0,0,0,0,0.1,0h1.5c0.1,0,0.1,0,0.2-0.1l0.8-1.2c0,0,0,0,0.1,0h2.9c0,0,0,0,0,0
		c0,0,0,0,0,0l-0.1,1.2C340.7,102.6,340.7,102.7,340.8,102.7 M330,95.7h1.5c0.3,0,0.5,0.1,0.7,0.3c0.1,0.2,0.2,0.4,0.1,0.7
		c-0.1,0.4-0.3,0.7-0.6,0.9c-0.3,0.2-0.6,0.3-1,0.3h-1.5c0,0,0,0,0-0.1L330,95.7C330,95.8,330,95.7,330,95.7
		C330,95.7,330,95.7,330,95.7 M330.3,102.7h1.4c0.1,0,0.1,0,0.2-0.1c0,0,0,0,0-0.1l-0.4-3.4c0,0,0-0.1,0.1-0.1
		c0.5-0.2,1-0.4,1.4-0.8c0.4-0.4,0.7-0.9,0.9-1.4c0.1-0.2,0.1-0.3,0.1-0.4c0.1-0.6,0.1-1.2-0.2-1.5c-0.3-0.4-0.8-0.6-1.5-0.6H329
		c0,0-0.1,0-0.1,0c0,0-0.1,0.1-0.1,0.1l-2.9,8.1c0,0,0,0.1,0,0.1c0,0,0,0,0.1,0h1.4c0,0,0.1,0,0.1,0c0,0,0.1-0.1,0.1-0.1l1.2-3.3
		c0,0,0-0.1,0.1-0.1h1.1c0,0,0.1,0,0.1,0l0.3,3.3C330.2,102.6,330.3,102.7,330.3,102.7 M325.3,94.3h-5.9c0,0-0.1,0-0.1,0
		c0,0-0.1,0.1-0.1,0.1l-0.4,1.2c0,0,0,0.1,0,0.1c0,0,0,0,0.1,0h2c0,0,0.1,0,0,0.1l-2.4,6.7c0,0,0,0.1,0,0.1c0,0,0,0,0.1,0h1.4
		c0,0,0.1,0,0.1,0c0,0,0.1-0.1,0.1-0.1l2.4-6.7c0,0,0.1-0.1,0.1-0.1h2.1c0,0,0.1,0,0.1,0c0,0,0.1-0.1,0.1-0.1l0.4-1.2
		C325.4,94.4,325.4,94.3,325.3,94.3C325.3,94.3,325.3,94.3,325.3,94.3 M315.6,95.6l0.4-1.2c0,0,0-0.1,0-0.1c0,0-0.1,0-0.1,0h-5.4
		c0,0-0.1,0-0.1,0c0,0-0.1,0.1-0.1,0.1l-2.9,8.1c0,0,0,0.1,0,0.1c0,0,0,0,0.1,0h5.4c0,0,0.1,0,0.1,0c0,0,0.1-0.1,0.1-0.1l0.4-1.2
		c0-0.1,0-0.1-0.1-0.1h-3.8c0,0,0,0,0-0.1l0.7-1.9c0,0,0-0.1,0.1-0.1h2.5c0,0,0.1,0,0.1,0c0,0,0.1-0.1,0.1-0.1l0.4-1.2
		c0,0,0-0.1,0-0.1c0,0,0,0-0.1,0h-2.5c0,0,0,0,0-0.1l0.7-1.9c0,0,0,0,0,0s0,0,0,0h3.8c0,0,0.1,0,0.1,0
		C315.6,95.6,315.6,95.6,315.6,95.6 M304.9,94.4l-2.7,2.8c0,0-0.1,0-0.1,0l-0.8-2.8c0-0.1,0-0.1-0.1-0.1h-1.4c0,0-0.1,0-0.1,0
		c0,0-0.1,0.1-0.1,0.1l-2.9,8.1c0,0,0,0.1,0,0.1c0,0,0,0,0.1,0h1.4c0,0,0.1,0,0.1,0c0,0,0.1-0.1,0.1-0.1l1.9-5.3c0,0,0-0.1,0-0.1
		c0,0,0,0,0,0l0.5,2c0,0.1,0.1,0.1,0.1,0.1h0.7c0.1,0,0.1,0,0.2-0.1l1.9-2c0,0,0,0,0.1,0s0,0,0,0l-1.9,5.3c0,0,0,0.1,0,0.1
		c0,0,0,0,0.1,0h1.4c0,0,0.1,0,0.1,0c0,0,0.1-0.1,0.1-0.1l2.9-8.1c0,0,0-0.1,0-0.1c0,0,0,0-0.1,0h-1.4
		C305.1,94.3,305,94.3,304.9,94.4 M290.5,101.3c-0.4,0-0.7-0.1-0.8-0.3c-0.2-0.2-0.2-0.5-0.1-0.9c0-0.1,0-0.2,0.1-0.3l0.9-2.6
		c0.2-0.5,0.4-0.8,0.8-1.1c0.4-0.3,0.8-0.4,1.2-0.4c0.4,0,0.7,0.1,0.8,0.3c0.2,0.2,0.2,0.5,0.1,0.9c0,0.1,0,0.2-0.1,0.3l-0.9,2.6
		c-0.2,0.5-0.4,0.8-0.8,1.1C291.3,101.2,290.9,101.3,290.5,101.3 M290,102.8c0.6,0,1.2-0.1,1.7-0.4c0.6-0.3,1-0.6,1.5-1.1
		c0.4-0.5,0.7-1,0.9-1.6l0.9-2.6c0.1-0.2,0.1-0.3,0.1-0.5c0.2-0.8,0.1-1.4-0.3-1.8c-0.4-0.5-1-0.7-1.8-0.7c-0.6,0-1.2,0.1-1.7,0.4
		c-0.5,0.3-1,0.6-1.5,1.1s-0.7,1-0.9,1.6l-0.9,2.6c-0.1,0.2-0.1,0.3-0.1,0.5c-0.2,0.8-0.1,1.4,0.3,1.9
		C288.5,102.6,289.1,102.8,290,102.8 M284.6,94.4l-1.8,5c0,0,0,0.1,0,0.1c0,0,0,0,0,0l-1.2-5.1c0-0.1-0.1-0.1-0.1-0.1h-1.3
		c0,0-0.1,0-0.1,0c0,0-0.1,0.1-0.1,0.1l-2.9,8.1c0,0,0,0.1,0,0.1c0,0,0,0,0.1,0h1.4c0,0,0.1,0,0.1,0c0,0,0.1-0.1,0.1-0.1l1.8-5.1
		c0,0,0-0.1,0-0.1c0,0,0,0,0,0l1.2,5.1c0,0.1,0,0.1,0.1,0.1h1.3c0,0,0.1,0,0.1,0c0,0,0.1-0.1,0.1-0.1l2.9-8.1c0,0,0-0.1,0-0.1
		c0,0,0,0-0.1,0h-1.4c0,0-0.1,0-0.1,0C284.6,94.3,284.6,94.4,284.6,94.4 M270.7,101.3c-0.4,0-0.7-0.1-0.8-0.3s-0.2-0.5-0.1-0.9
		c0-0.1,0-0.2,0.1-0.3l0.9-2.6c0.2-0.5,0.4-0.8,0.8-1.1c0.4-0.3,0.8-0.4,1.2-0.4c0.4,0,0.7,0.1,0.8,0.3c0.2,0.2,0.2,0.5,0.1,0.9
		c0,0.1,0,0.2-0.1,0.3l-0.9,2.6c-0.2,0.5-0.4,0.8-0.8,1.1C271.5,101.2,271.1,101.3,270.7,101.3 M270.2,102.8c0.6,0,1.2-0.1,1.7-0.4
		c0.6-0.3,1-0.6,1.5-1.1c0.4-0.5,0.7-1,0.9-1.6l0.9-2.6c0.1-0.2,0.1-0.3,0.1-0.5c0.2-0.8,0.1-1.4-0.3-1.8c-0.4-0.5-1-0.7-1.8-0.7
		c-0.6,0-1.2,0.1-1.7,0.4c-0.6,0.3-1,0.6-1.5,1.1c-0.4,0.5-0.7,1-0.9,1.6l-0.9,2.6c-0.1,0.2-0.1,0.3-0.1,0.5
		c-0.2,0.8-0.1,1.4,0.3,1.9C268.7,102.6,269.4,102.8,270.2,102.8 M261.9,95.7h1.5c0.3,0,0.5,0.1,0.7,0.3c0.1,0.2,0.2,0.4,0.1,0.7
		c-0.1,0.4-0.3,0.7-0.6,0.9c-0.3,0.2-0.6,0.3-1,0.3h-1.5c0,0,0,0,0-0.1L261.9,95.7C261.9,95.8,261.9,95.7,261.9,95.7
		C261.9,95.7,261.9,95.7,261.9,95.7 M262.3,102.7h1.4c0.1,0,0.1,0,0.2-0.1c0,0,0,0,0-0.1l-0.4-3.4c0,0,0-0.1,0.1-0.1
		c0.5-0.2,1-0.4,1.4-0.8c0.4-0.4,0.7-0.9,0.9-1.4c0.1-0.2,0.1-0.3,0.1-0.4c0.1-0.6,0.1-1.2-0.2-1.5c-0.3-0.4-0.8-0.6-1.5-0.6h-3.3
		c0,0-0.1,0-0.1,0c0,0-0.1,0.1-0.1,0.1l-2.9,8.1c0,0,0,0.1,0,0.1c0,0,0,0,0.1,0h1.4c0,0,0.1,0,0.1,0c0,0,0.1-0.1,0.1-0.1l1.2-3.3
		c0,0,0-0.1,0.1-0.1h1.1c0,0,0.1,0,0.1,0l0.3,3.3C262.1,102.6,262.2,102.7,262.3,102.7 M248.2,102.7h1.4c0,0,0.1,0,0.1,0
		c0,0,0.1-0.1,0.1-0.1l0.8-2.4l0.1-0.1l1.1-0.9c0,0,0,0,0.1,0c0,0,0,0,0,0l0.8,3.5c0,0.1,0.1,0.1,0.1,0.1h1.5c0.1,0,0.1,0,0.1-0.1
		c0,0,0-0.1,0-0.1l-1.1-4.5c0,0,0-0.1,0-0.1l3.8-3.4c0,0,0.1-0.1,0.1-0.1c0-0.1,0-0.1-0.1-0.1h-1.5c-0.1,0-0.1,0-0.2,0.1l-3.9,3.4
		c0,0,0,0-0.1,0c0,0,0,0,0,0l1.2-3.4c0,0,0-0.1,0-0.1c0,0,0,0-0.1,0h-1.4c0,0-0.1,0-0.1,0c0,0-0.1,0.1-0.1,0.1l-2.9,8.1
		C248.1,102.6,248.1,102.6,248.2,102.7C248.2,102.6,248.2,102.7,248.2,102.7 M234.5,102.7h5.4c0,0,0.1,0,0.1,0c0,0,0.1-0.1,0.1-0.1
		l0.4-1.2c0-0.1,0-0.1-0.1-0.1h-3.8c0,0,0,0,0-0.1l2.4-6.7c0,0,0-0.1,0-0.1c0,0,0,0-0.1,0h-1.4c0,0-0.1,0-0.1,0c0,0-0.1,0.1-0.1,0.1
		l-2.9,8.1C234.4,102.6,234.4,102.6,234.5,102.7C234.4,102.6,234.4,102.7,234.5,102.7 M228.1,101.3c-0.4,0-0.7-0.1-0.8-0.3
		c-0.2-0.2-0.2-0.5-0.1-0.9c0-0.1,0-0.2,0.1-0.3l0.9-2.6c0.2-0.5,0.4-0.8,0.8-1.1c0.4-0.3,0.8-0.4,1.2-0.4c0.4,0,0.7,0.1,0.8,0.3
		c0.2,0.2,0.2,0.5,0.1,0.9c0,0.1-0.1,0.2-0.1,0.3l-0.9,2.6c-0.2,0.5-0.4,0.8-0.8,1.1C228.9,101.2,228.5,101.3,228.1,101.3
		 M227.5,102.8c0.6,0,1.2-0.1,1.7-0.4c0.6-0.3,1-0.6,1.5-1.1c0.4-0.5,0.7-1,0.9-1.6l0.9-2.6c0.1-0.2,0.1-0.3,0.1-0.5
		c0.2-0.8,0.1-1.4-0.3-1.8c-0.4-0.5-1-0.7-1.8-0.7c-0.6,0-1.2,0.1-1.7,0.4c-0.6,0.3-1,0.6-1.5,1.1c-0.4,0.5-0.7,1-0.9,1.6l-0.9,2.6
		c-0.1,0.2-0.1,0.3-0.1,0.5c-0.2,0.8-0.1,1.4,0.3,1.9S226.7,102.8,227.5,102.8 M219.3,95.7h1.5c0.3,0,0.5,0.1,0.7,0.3
		c0.1,0.2,0.2,0.4,0.1,0.7c-0.1,0.4-0.3,0.7-0.6,0.9c-0.3,0.2-0.6,0.3-1,0.3h-1.5c0,0,0,0,0-0.1L219.3,95.7
		C219.2,95.8,219.2,95.7,219.3,95.7C219.3,95.7,219.3,95.7,219.3,95.7 M219.6,102.7h1.4c0.1,0,0.1,0,0.2-0.1c0,0,0,0,0-0.1l-0.4-3.4
		c0,0,0-0.1,0.1-0.1c0.5-0.2,1-0.4,1.4-0.8c0.4-0.4,0.7-0.9,0.9-1.4c0.1-0.2,0.1-0.3,0.1-0.4c0.1-0.6,0.1-1.2-0.2-1.5
		c-0.3-0.4-0.8-0.6-1.5-0.6h-3.3c0,0-0.1,0-0.1,0c0,0-0.1,0.1-0.1,0.1l-2.9,8.1c0,0,0,0.1,0,0.1c0,0,0,0,0.1,0h1.4c0,0,0.1,0,0.1,0
		c0,0,0.1-0.1,0.1-0.1l1.2-3.3c0,0,0-0.1,0.1-0.1h1.1c0,0,0.1,0,0.1,0l0.3,3.3C219.5,102.6,219.5,102.7,219.6,102.7 M209.8,102.7
		h1.4c0,0,0.1,0,0.1,0c0,0,0.1-0.1,0.1-0.1l2.9-8.1c0,0,0-0.1,0-0.1c0,0,0,0-0.1,0h-1.4c0,0-0.1,0-0.1,0c0,0-0.1,0.1-0.1,0.1
		l-2.9,8.1C209.7,102.6,209.7,102.6,209.8,102.7C209.7,102.6,209.8,102.7,209.8,102.7 M200.1,102.7h1.4c0,0,0.1,0,0.1,0
		c0,0,0.1-0.1,0.1-0.1l0.8-2.4l0.1-0.1l1.1-0.9c0,0,0,0,0.1,0c0,0,0,0,0,0l0.8,3.5c0,0.1,0.1,0.1,0.1,0.1h1.5c0.1,0,0.1,0,0.1-0.1
		c0,0,0-0.1,0-0.1l-1.1-4.5c0,0,0-0.1,0-0.1l3.8-3.4c0,0,0.1-0.1,0.1-0.1c0-0.1,0-0.1-0.1-0.1h-1.5c-0.1,0-0.1,0-0.2,0.1l-3.9,3.4
		c0,0,0,0-0.1,0c0,0,0,0,0,0l1.2-3.4c0,0,0-0.1,0-0.1c0,0,0,0-0.1,0h-1.4c0,0-0.1,0-0.1,0c0,0-0.1,0.1-0.1,0.1l-2.9,8.1
		C200,102.6,200,102.6,200.1,102.7C200.1,102.6,200.1,102.7,200.1,102.7"/>
	<path class="st2" d="M69.7,17.9l-5.2,6.9h5.7c1.6,0,3.8-1.3,5-2.8l3.1-4.1H69.7z"/>
</g>
<polygon class="st1" points="64.1,11.1 73.2,11.1 68.1,17.9 59,17.9 "/>
<polygon class="st1" points="54.7,24.8 63.8,24.8 58.7,31.6 49.6,31.6 "/>
<g>
	<defs>
		<rect id="SVGID_5_" x="11.7" y="9.7" width="380.7" height="93.1"/>
	</defs>
	<clipPath id="SVGID_6_">
		<use xlink:href="#SVGID_5_"  style="overflow:visible;"/>
	</clipPath>
	<path class="st3" d="M35.4,55.7l-8.7,11.5H38c1.6,0,3.8-1.3,5-2.8l6.5-8.7H35.4z"/>
</g>
<polygon class="st1" points="11.7,73.6 11.7,73.6 16.8,66.8 26,66.8 20.9,73.6 "/>
</svg>
