<?xml version="1.0" encoding="utf-8"?>
<!-- Generator: Adobe Illustrator 24.2.3, SVG Export Plug-In . SVG Version: 6.00 Build 0)  -->
<svg version="1.1" id="Capa_1" xmlns="http://www.w3.org/2000/svg" xmlns:xlink="http://www.w3.org/1999/xlink" x="0px" y="0px"
	 viewBox="0 0 403 112.5" style="enable-background:new 0 0 403 112.5;" xml:space="preserve">
<style type="text/css">
	.st0{clip-path:url(#SVGID_2_);fill:#FFFFFF;}
	.st1{fill:#FFFFFF;}
	.st2{clip-path:url(#SVGID_4_);fill:#FFFFFF;}
</style>
<g>
	<defs>
		<rect id="SVGID_1_" x="12" y="13.9" width="375.1" height="88.7"/>
	</defs>
	<clipPath id="SVGID_2_">
		<use xlink:href="#SVGID_1_"  style="overflow:visible;"/>
	</clipPath>
	<path class="st0" d="M85.3,58.4h-16l13.4-23.5L85.3,58.4z M88.4,83.9h19.5l-10.3-70h-20L72,23h8.7l-2.5,4.3
		c-1.4,2.4-4.4,4.3-6.7,4.3h-4.7L50.4,58.5h14.1l-4.5,7.8c-1.6,2.7-5.1,5-7.8,5h-9.6l-7.7,12.7h19.5l7.4-12.5h25L88.4,83.9z
		 M178.9,27.9l3.2-14h-57l-3.2,14h35l-44.7,42l-3.2,14h57l3.2-14h-35L178.9,27.9z M234.5,83.9l0.6-1l-11-34.5l27.6-34.5h-19
		l-21.9,27.5h-9l6.3-27.5h-18l-16.2,70h18l6.6-28.5h9l8.9,28.5H234.5z M284.9,58.4h-16l13.4-23.5L284.9,58.4z M288,83.9h19.5
		l-10.3-70h-20l-42.1,69l0.3,1H254l7.4-12.5h25L288,83.9z M368.1,33.9l-2.1,9c-0.9,4-3.4,6-7.4,6h-20l4.8-21h20
		C367.5,27.9,369,29.9,368.1,33.9 M384.8,18.7c-2.4-3.2-7.2-4.8-14.2-4.8h-42l-16.2,70h18l4.8-21h14l6.7,21h19.5l-7.4-22
		c4.2-1,7.6-3,10.2-6.1c2.5-3.1,4.5-7.4,5.7-12.9l2.1-9C387.7,26.9,387.3,21.8,384.8,18.7"/>
	<path class="st0" d="M370.6,99.8l2.3-3.6c0,0,0,0,0,0c0,0,0,0,0,0l-0.2,3.6c0,0,0,0.1-0.1,0.1L370.6,99.8
		C370.5,99.9,370.5,99.8,370.6,99.8 M372.7,102.5h1.5c0,0,0.1,0,0.1,0c0,0,0-0.1,0.1-0.1l0,0l0.4-8.1c0-0.1,0-0.1-0.1-0.1h-1.8
		c-0.1,0-0.1,0-0.2,0.1l-5.4,8.1c0,0,0,0.1,0,0.1c0,0,0,0,0.1,0h1.5c0.1,0,0.1,0,0.2-0.1l0.8-1.2c0,0,0,0,0.1,0h2.9c0,0,0,0,0,0
		c0,0,0,0,0,0l-0.1,1.2C372.6,102.5,372.6,102.5,372.7,102.5 M366.4,95.4l0.4-1.2c0,0,0-0.1,0-0.1c0,0-0.1,0-0.1,0h-5.4
		c0,0-0.1,0-0.1,0c0,0-0.1,0.1-0.1,0.1l-2.9,8.1c0,0,0,0.1,0,0.1c0,0,0,0,0.1,0h5.4c0,0,0.1,0,0.1,0c0,0,0.1-0.1,0.1-0.1l0.4-1.2
		c0-0.1,0-0.1-0.1-0.1h-3.8c0,0,0,0,0-0.1l0.7-1.9c0,0,0-0.1,0.1-0.1h2.5c0,0,0.1,0,0.1,0c0,0,0.1-0.1,0.1-0.1l0.4-1.2
		c0,0,0-0.1,0-0.1c0,0,0,0-0.1,0h-2.5c0,0,0,0,0-0.1l0.7-1.9c0,0,0,0,0,0c0,0,0,0,0,0h3.8c0,0,0.1,0,0.1,0
		C366.4,95.5,366.4,95.5,366.4,95.4 M351.5,102.6c0.6,0,1.1-0.1,1.6-0.3c0.5-0.2,1-0.5,1.4-1c0.4-0.4,0.7-0.9,0.9-1.4l2-5.6
		c0,0,0-0.1,0-0.1c0,0,0,0-0.1,0h-1.3c0,0-0.1,0-0.1,0c0,0-0.1,0.1-0.1,0.1l-2,5.6c-0.1,0.4-0.4,0.7-0.7,0.9
		c-0.3,0.2-0.7,0.4-1.1,0.4c-0.4,0-0.6-0.1-0.8-0.3c-0.2-0.2-0.2-0.5-0.1-0.8c0-0.1,0-0.2,0.1-0.2l0.3-0.8c0-0.1,0-0.1-0.1-0.1H350
		c0,0-0.1,0-0.1,0c0,0-0.1,0.1-0.1,0.1l-0.3,0.8c-0.1,0.2-0.1,0.3-0.1,0.4c-0.2,0.7-0.1,1.3,0.3,1.7
		C350.1,102.4,350.7,102.6,351.5,102.6 M341.9,99.8l2.3-3.6c0,0,0,0,0,0c0,0,0,0,0,0l-0.2,3.6c0,0,0,0.1-0.1,0.1L341.9,99.8
		C341.9,99.9,341.9,99.8,341.9,99.8 M344,102.5h1.5c0,0,0.1,0,0.1,0c0,0,0-0.1,0.1-0.1l0,0l0.4-8.1c0-0.1,0-0.1-0.1-0.1h-1.8
		c-0.1,0-0.1,0-0.2,0.1l-5.4,8.1c0,0,0,0.1,0,0.1c0,0,0,0,0.1,0h1.5c0.1,0,0.1,0,0.2-0.1l0.8-1.2c0,0,0,0,0.1,0h2.9c0,0,0,0,0,0
		c0,0,0,0,0,0l-0.1,1.2C343.9,102.5,344,102.5,344,102.5 M333.3,95.6h1.5c0.3,0,0.5,0.1,0.7,0.3c0.1,0.2,0.2,0.4,0.1,0.7
		c-0.1,0.4-0.3,0.7-0.6,0.9c-0.3,0.2-0.6,0.3-1,0.3h-1.5c0,0,0,0,0-0.1L333.3,95.6C333.2,95.6,333.2,95.6,333.3,95.6
		C333.3,95.6,333.3,95.6,333.3,95.6 M333.6,102.5h1.4c0.1,0,0.1,0,0.2-0.1c0,0,0,0,0-0.1l-0.4-3.4c0,0,0-0.1,0.1-0.1
		c0.5-0.2,1-0.4,1.4-0.8c0.4-0.4,0.7-0.9,0.9-1.4c0.1-0.2,0.1-0.3,0.1-0.4c0.1-0.6,0.1-1.2-0.2-1.5c-0.3-0.4-0.8-0.6-1.5-0.6h-3.3
		c0,0-0.1,0-0.1,0c0,0-0.1,0.1-0.1,0.1l-2.9,8.1c0,0,0,0.1,0,0.1c0,0,0,0,0.1,0h1.4c0,0,0.1,0,0.1,0c0,0,0.1-0.1,0.1-0.1l1.2-3.3
		c0,0,0-0.1,0.1-0.1h1.1c0,0,0.1,0,0.1,0l0.3,3.3C333.5,102.5,333.5,102.5,333.6,102.5 M328.5,94.1h-5.9c0,0-0.1,0-0.1,0
		c0,0-0.1,0.1-0.1,0.1l-0.4,1.2c0,0,0,0.1,0,0.1c0,0,0,0,0.1,0h2c0,0,0.1,0,0,0.1l-2.4,6.7c0,0,0,0.1,0,0.1c0,0,0,0,0.1,0h1.4
		c0,0,0.1,0,0.1,0c0,0,0.1-0.1,0.1-0.1l2.4-6.7c0,0,0.1-0.1,0.1-0.1h2.1c0,0,0.1,0,0.1,0c0,0,0.1-0.1,0.1-0.1l0.4-1.2
		C328.6,94.2,328.6,94.2,328.5,94.1C328.6,94.1,328.6,94.1,328.5,94.1 M318.9,95.4l0.4-1.2c0,0,0-0.1,0-0.1c0,0-0.1,0-0.1,0h-5.4
		c0,0-0.1,0-0.1,0c0,0-0.1,0.1-0.1,0.1l-2.9,8.1c0,0,0,0.1,0,0.1c0,0,0,0,0.1,0h5.4c0,0,0.1,0,0.1,0c0,0,0.1-0.1,0.1-0.1l0.4-1.2
		c0-0.1,0-0.1-0.1-0.1h-3.8c0,0,0,0,0-0.1l0.7-1.9c0,0,0-0.1,0.1-0.1h2.5c0,0,0.1,0,0.1,0c0,0,0.1-0.1,0.1-0.1l0.4-1.2
		c0,0,0-0.1,0-0.1c0,0,0,0-0.1,0h-2.5c0,0,0,0,0-0.1l0.7-1.9c0,0,0,0,0,0c0,0,0,0,0,0h3.8c0,0,0.1,0,0.1,0
		C318.9,95.5,318.9,95.5,318.9,95.4 M308.2,94.2l-2.7,2.8c0,0-0.1,0-0.1,0l-0.8-2.8c0-0.1-0.1-0.1-0.1-0.1h-1.4c0,0-0.1,0-0.1,0
		c0,0-0.1,0.1-0.1,0.1l-2.9,8.1c0,0,0,0.1,0,0.1c0,0,0,0,0.1,0h1.4c0,0,0.1,0,0.1,0c0,0,0.1-0.1,0.1-0.1l1.9-5.3c0,0,0-0.1,0-0.1
		c0,0,0,0,0,0l0.5,2c0,0.1,0,0.1,0.1,0.1h0.7c0.1,0,0.1,0,0.2-0.1l1.9-2c0,0,0,0,0.1,0c0,0,0,0,0,0l-1.9,5.3c0,0,0,0.1,0,0.1
		c0,0,0,0,0.1,0h1.4c0,0,0.1,0,0.1,0c0,0,0.1-0.1,0.1-0.1l2.9-8.1c0,0,0-0.1,0-0.1c0,0,0,0-0.1,0h-1.4
		C308.3,94.1,308.3,94.2,308.2,94.2 M293.8,101.2c-0.4,0-0.7-0.1-0.8-0.3s-0.2-0.5-0.1-0.9c0-0.1,0-0.2,0.1-0.3l0.9-2.6
		c0.2-0.5,0.4-0.8,0.8-1.1c0.4-0.3,0.8-0.4,1.2-0.4c0.4,0,0.7,0.1,0.8,0.3c0.2,0.2,0.2,0.5,0.1,0.9c0,0.1,0,0.2-0.1,0.3l-0.9,2.6
		c-0.2,0.5-0.4,0.8-0.8,1.1C294.6,101.1,294.2,101.2,293.8,101.2 M293.2,102.7c0.6,0,1.2-0.1,1.7-0.4s1-0.6,1.5-1.1s0.7-1,0.9-1.6
		l0.9-2.6c0.1-0.2,0.1-0.3,0.1-0.5c0.2-0.8,0.1-1.4-0.3-1.8c-0.4-0.5-1-0.7-1.8-0.7c-0.6,0-1.2,0.1-1.7,0.4c-0.6,0.3-1,0.6-1.5,1.1
		s-0.7,1-0.9,1.6l-0.9,2.6c-0.1,0.2-0.1,0.3-0.1,0.5c-0.2,0.8-0.1,1.4,0.3,1.9S292.4,102.7,293.2,102.7 M287.8,94.3l-1.8,5
		c0,0,0,0,0,0.1c0,0,0,0,0,0l-1.2-5.1c0-0.1-0.1-0.1-0.1-0.1h-1.3c0,0-0.1,0-0.1,0c0,0-0.1,0.1-0.1,0.1l-2.9,8.1c0,0,0,0.1,0,0.1
		c0,0,0,0,0.1,0h1.4c0,0,0.1,0,0.1,0c0,0,0.1-0.1,0.1-0.1l1.8-5.1c0,0,0,0,0-0.1c0,0,0,0,0,0l1.2,5.1c0,0.1,0,0.1,0.1,0.1h1.3
		c0,0,0.1,0,0.1,0c0,0,0.1-0.1,0.1-0.1l2.9-8.1c0,0,0-0.1,0-0.1c0,0,0,0-0.1,0H288c0,0-0.1,0-0.1,0
		C287.9,94.2,287.8,94.2,287.8,94.3 M274,101.2c-0.4,0-0.7-0.1-0.8-0.3c-0.2-0.2-0.2-0.5-0.1-0.9c0-0.1,0-0.2,0.1-0.3L274,97
		c0.2-0.5,0.4-0.8,0.8-1.1c0.4-0.3,0.8-0.4,1.2-0.4c0.4,0,0.7,0.1,0.8,0.3c0.2,0.2,0.2,0.5,0.1,0.9c0,0.1,0,0.2-0.1,0.3l-0.9,2.6
		c-0.2,0.5-0.4,0.8-0.8,1.1C274.8,101.1,274.4,101.2,274,101.2 M273.4,102.7c0.6,0,1.2-0.1,1.7-0.4c0.6-0.3,1-0.6,1.5-1.1
		s0.7-1,0.9-1.6l0.9-2.6c0.1-0.2,0.1-0.3,0.1-0.5c0.2-0.8,0.1-1.4-0.3-1.8c-0.4-0.5-1-0.7-1.8-0.7c-0.6,0-1.2,0.1-1.7,0.4
		c-0.5,0.3-1,0.6-1.5,1.1s-0.7,1-0.9,1.6l-0.9,2.6c-0.1,0.2-0.1,0.3-0.1,0.5c-0.2,0.8-0.1,1.4,0.3,1.9
		C272,102.4,272.6,102.7,273.4,102.7 M265.2,95.6h1.5c0.3,0,0.5,0.1,0.7,0.3c0.1,0.2,0.2,0.4,0.1,0.7c-0.1,0.4-0.3,0.7-0.6,0.9
		c-0.3,0.2-0.6,0.3-1,0.3h-1.5c0,0,0,0,0-0.1L265.2,95.6C265.1,95.6,265.1,95.6,265.2,95.6C265.2,95.6,265.2,95.6,265.2,95.6
		 M265.5,102.5h1.4c0.1,0,0.1,0,0.2-0.1c0,0,0,0,0-0.1l-0.4-3.4c0,0,0-0.1,0.1-0.1c0.5-0.2,1-0.4,1.4-0.8c0.4-0.4,0.7-0.9,0.9-1.4
		c0.1-0.2,0.1-0.3,0.1-0.4c0.1-0.6,0.1-1.2-0.2-1.5c-0.3-0.4-0.8-0.6-1.5-0.6h-3.3c0,0-0.1,0-0.1,0c0,0-0.1,0.1-0.1,0.1l-2.9,8.1
		c0,0,0,0.1,0,0.1c0,0,0,0,0.1,0h1.4c0,0,0.1,0,0.1,0c0,0,0.1-0.1,0.1-0.1l1.2-3.3c0,0,0-0.1,0.1-0.1h1.1c0,0,0.1,0,0.1,0l0.3,3.3
		C265.4,102.5,265.5,102.5,265.5,102.5 M251.5,102.5h1.4c0,0,0.1,0,0.1,0c0,0,0.1-0.1,0.1-0.1l0.8-2.4l0.1-0.1L255,99c0,0,0,0,0.1,0
		c0,0,0,0,0,0l0.8,3.5c0,0.1,0.1,0.1,0.1,0.1h1.5c0.1,0,0.1,0,0.1-0.1c0,0,0-0.1,0-0.1l-1.1-4.5c0,0,0-0.1,0-0.1l3.8-3.4
		c0,0,0.1-0.1,0.1-0.1c0-0.1,0-0.1-0.1-0.1h-1.5c-0.1,0-0.1,0-0.2,0.1l-3.9,3.4c0,0,0,0-0.1,0c0,0,0,0,0,0l1.2-3.4c0,0,0-0.1,0-0.1
		c0,0,0,0-0.1,0h-1.4c0,0-0.1,0-0.1,0c0,0-0.1,0.1-0.1,0.1l-2.9,8.1C251.4,102.4,251.4,102.5,251.5,102.5
		C251.4,102.5,251.5,102.5,251.5,102.5 M237.7,102.5h5.4c0,0,0.1,0,0.1,0c0,0,0.1-0.1,0.1-0.1l0.4-1.2c0-0.1,0-0.1-0.1-0.1h-3.8
		c0,0,0,0,0-0.1l2.4-6.7c0,0,0-0.1,0-0.1c0,0,0,0-0.1,0h-1.4c0,0-0.1,0-0.1,0c0,0-0.1,0.1-0.1,0.1l-2.9,8.1
		C237.6,102.4,237.6,102.5,237.7,102.5C237.7,102.5,237.7,102.5,237.7,102.5 M231.3,101.2c-0.4,0-0.7-0.1-0.8-0.3
		c-0.2-0.2-0.2-0.5-0.1-0.9c0-0.1,0-0.2,0.1-0.3l0.9-2.6c0.2-0.5,0.4-0.8,0.8-1.1c0.4-0.3,0.8-0.4,1.2-0.4c0.4,0,0.7,0.1,0.8,0.3
		c0.2,0.2,0.2,0.5,0.1,0.9c0,0.1-0.1,0.2-0.1,0.3l-0.9,2.6c-0.2,0.5-0.4,0.8-0.8,1.1C232.1,101.1,231.7,101.2,231.3,101.2
		 M230.8,102.7c0.6,0,1.2-0.1,1.7-0.4c0.6-0.3,1-0.6,1.5-1.1s0.7-1,0.9-1.6l0.9-2.6c0.1-0.2,0.1-0.3,0.1-0.5
		c0.2-0.8,0.1-1.4-0.3-1.8c-0.4-0.5-1-0.7-1.8-0.7c-0.6,0-1.2,0.1-1.7,0.4s-1,0.6-1.5,1.1c-0.4,0.5-0.7,1-0.9,1.6l-0.9,2.6
		c-0.1,0.2-0.1,0.3-0.1,0.5c-0.2,0.8-0.1,1.4,0.3,1.9S230,102.7,230.8,102.7 M222.6,95.6h1.5c0.3,0,0.5,0.1,0.7,0.3
		c0.1,0.2,0.2,0.4,0.1,0.7c-0.1,0.4-0.3,0.7-0.6,0.9c-0.3,0.2-0.6,0.3-1,0.3h-1.5c0,0,0,0,0-0.1L222.6,95.6
		C222.5,95.6,222.5,95.6,222.6,95.6C222.5,95.6,222.5,95.6,222.6,95.6 M222.9,102.5h1.4c0.1,0,0.1,0,0.2-0.1c0,0,0,0,0-0.1l-0.4-3.4
		c0,0,0-0.1,0.1-0.1c0.5-0.2,1-0.4,1.4-0.8c0.4-0.4,0.7-0.9,0.9-1.4c0.1-0.2,0.1-0.3,0.1-0.4c0.1-0.6,0.1-1.2-0.2-1.5
		c-0.3-0.4-0.8-0.6-1.5-0.6h-3.3c0,0-0.1,0-0.1,0c0,0-0.1,0.1-0.1,0.1l-2.9,8.1c0,0,0,0.1,0,0.1c0,0,0,0,0.1,0h1.4c0,0,0.1,0,0.1,0
		c0,0,0.1-0.1,0.1-0.1l1.2-3.3c0,0,0-0.1,0.1-0.1h1.1c0,0,0.1,0,0.1,0l0.3,3.3C222.8,102.5,222.8,102.5,222.9,102.5 M213.1,102.5
		h1.4c0,0,0.1,0,0.1,0c0,0,0.1-0.1,0.1-0.1l2.9-8.1c0,0,0-0.1,0-0.1c0,0,0,0-0.1,0h-1.4c0,0-0.1,0-0.1,0c0,0-0.1,0.1-0.1,0.1
		l-2.9,8.1C213,102.4,213,102.5,213.1,102.5C213,102.5,213,102.5,213.1,102.5 M203.4,102.5h1.4c0,0,0.1,0,0.1,0c0,0,0.1-0.1,0.1-0.1
		l0.8-2.4l0.1-0.1l1.1-0.9c0,0,0,0,0.1,0c0,0,0,0,0,0l0.8,3.5c0,0.1,0.1,0.1,0.1,0.1h1.5c0.1,0,0.1,0,0.1-0.1c0,0,0-0.1,0-0.1
		l-1.1-4.5c0,0,0-0.1,0-0.1l3.8-3.4c0,0,0.1-0.1,0.1-0.1c0-0.1,0-0.1-0.1-0.1h-1.5c-0.1,0-0.1,0-0.2,0.1l-3.9,3.4c0,0,0,0-0.1,0
		c0,0,0,0,0,0l1.2-3.4c0,0,0-0.1,0-0.1c0,0,0,0-0.1,0h-1.4c0,0-0.1,0-0.1,0c0,0-0.1,0.1-0.1,0.1l-2.9,8.1
		C203.3,102.4,203.3,102.5,203.4,102.5C203.3,102.5,203.4,102.5,203.4,102.5"/>
</g>
<polygon class="st1" points="12,79.7 12,79.7 16.9,71.2 26,71.2 21.1,79.7 "/>
<g>
	<defs>
		<rect id="SVGID_3_" x="12" y="13.9" width="375.1" height="88.7"/>
	</defs>
	<clipPath id="SVGID_4_">
		<use xlink:href="#SVGID_3_"  style="overflow:visible;"/>
	</clipPath>
	<path class="st2" d="M34.1,58.5l-7.4,12.8h9.9c2.7,0,6.2-2.2,7.8-5l4.5-7.8H34.1z"/>
	<path class="st2" d="M60.1,23l-4.9,8.5h5.7c2.4,0,5.4-1.9,6.7-4.3l2.5-4.3H60.1z"/>
</g>
<polygon class="st1" points="45,31.6 54.1,31.6 49.2,40.1 40.1,40.1 "/>
<polygon class="st1" points="54.7,14.5 63.9,14.5 58.9,23 49.8,23 "/>
</svg>
